<mxfile host="Electron" agent="Mozilla/5.0 (X11; Linux x86_64) AppleWebKit/537.36 (KHTML, like Gecko) draw.io/26.0.4 Chrome/128.0.6613.186 Electron/32.2.5 Safari/537.36" version="26.0.4">
  <diagram name="Page-1" id="FumnIE3BPIjqLqp3ag1E">
    <mxGraphModel dx="1466" dy="1626" grid="1" gridSize="10" guides="1" tooltips="1" connect="1" arrows="1" fold="1" page="1" pageScale="1" pageWidth="850" pageHeight="1100" math="0" shadow="0">
      <root>
        <mxCell id="0" />
        <mxCell id="1" parent="0" />
        <mxCell id="9cZB8jZeDIRbqrZxd8ii-13" value="" style="shape=folder;fontStyle=1;spacingTop=10;tabWidth=70;tabHeight=30;tabPosition=left;html=1;whiteSpace=wrap;fillColor=#99FFFF;" vertex="1" parent="1">
          <mxGeometry x="-180" y="50" width="490" height="280" as="geometry" />
        </mxCell>
        <mxCell id="53Jxq9FcmLqkvc1geXPp-1" value="Board" style="swimlane;fontStyle=1;align=center;verticalAlign=top;childLayout=stackLayout;horizontal=1;startSize=26;horizontalStack=0;resizeParent=1;resizeParentMax=0;resizeLast=0;collapsible=1;marginBottom=0;whiteSpace=wrap;html=1;" parent="1" vertex="1">
          <mxGeometry x="-160" y="100" width="190" height="210" as="geometry" />
        </mxCell>
        <mxCell id="53Jxq9FcmLqkvc1geXPp-2" value="- num: uchar[sizeN]&lt;div&gt;- num_row: uchar[sizeN]&lt;br&gt;&lt;div&gt;- sizeX, sizeY, sizeN: static const uchar&lt;/div&gt;&lt;/div&gt;" style="text;strokeColor=none;fillColor=none;align=left;verticalAlign=top;spacingLeft=4;spacingRight=4;overflow=hidden;rotatable=0;points=[[0,0.5],[1,0.5]];portConstraint=eastwest;whiteSpace=wrap;html=1;" parent="53Jxq9FcmLqkvc1geXPp-1" vertex="1">
          <mxGeometry y="26" width="190" height="64" as="geometry" />
        </mxCell>
        <mxCell id="53Jxq9FcmLqkvc1geXPp-3" value="" style="line;strokeWidth=1;fillColor=none;align=left;verticalAlign=middle;spacingTop=-1;spacingLeft=3;spacingRight=3;rotatable=0;labelPosition=right;points=[];portConstraint=eastwest;strokeColor=inherit;" parent="53Jxq9FcmLqkvc1geXPp-1" vertex="1">
          <mxGeometry y="90" width="190" height="8" as="geometry" />
        </mxCell>
        <mxCell id="53Jxq9FcmLqkvc1geXPp-4" value="+ Board()&lt;div&gt;&lt;div&gt;+ loadFile(str): bool&lt;/div&gt;&lt;/div&gt;&lt;div&gt;+ getRow(num: uchar): int&lt;/div&gt;&lt;div&gt;&lt;br&gt;&lt;/div&gt;&lt;div&gt;- sortNum(l, r): void&lt;/div&gt;&lt;div&gt;&amp;nbsp; &amp;nbsp; - sortPartition(l, r): int&lt;br&gt;&lt;/div&gt;&lt;div&gt;&amp;nbsp; &amp;nbsp; - swapIndex(a, b): void&lt;br&gt;&lt;/div&gt;" style="text;strokeColor=none;fillColor=none;align=left;verticalAlign=top;spacingLeft=4;spacingRight=4;overflow=hidden;rotatable=0;points=[[0,0.5],[1,0.5]];portConstraint=eastwest;whiteSpace=wrap;html=1;" parent="53Jxq9FcmLqkvc1geXPp-1" vertex="1">
          <mxGeometry y="98" width="190" height="112" as="geometry" />
        </mxCell>
        <mxCell id="53Jxq9FcmLqkvc1geXPp-5" value="Player" style="swimlane;fontStyle=1;align=center;verticalAlign=top;childLayout=stackLayout;horizontal=1;startSize=26;horizontalStack=0;resizeParent=1;resizeParentMax=0;resizeLast=0;collapsible=1;marginBottom=0;whiteSpace=wrap;html=1;" parent="1" vertex="1">
          <mxGeometry x="370" y="130" width="190" height="230" as="geometry" />
        </mxCell>
        <mxCell id="53Jxq9FcmLqkvc1geXPp-6" value="- board: BoardPlayer&lt;div&gt;&lt;div&gt;&lt;br&gt;&lt;/div&gt;&lt;div&gt;- name: string&lt;/div&gt;&lt;/div&gt;" style="text;strokeColor=none;fillColor=none;align=left;verticalAlign=top;spacingLeft=4;spacingRight=4;overflow=hidden;rotatable=0;points=[[0,0.5],[1,0.5]];portConstraint=eastwest;whiteSpace=wrap;html=1;" parent="53Jxq9FcmLqkvc1geXPp-5" vertex="1">
          <mxGeometry y="26" width="190" height="54" as="geometry" />
        </mxCell>
        <mxCell id="53Jxq9FcmLqkvc1geXPp-7" value="" style="line;strokeWidth=1;fillColor=none;align=left;verticalAlign=middle;spacingTop=-1;spacingLeft=3;spacingRight=3;rotatable=0;labelPosition=right;points=[];portConstraint=eastwest;strokeColor=inherit;" parent="53Jxq9FcmLqkvc1geXPp-5" vertex="1">
          <mxGeometry y="80" width="190" height="8" as="geometry" />
        </mxCell>
        <mxCell id="53Jxq9FcmLqkvc1geXPp-8" value="+ Player()&lt;div&gt;&lt;br&gt;&lt;div&gt;+ setCredentials(name, board_addr): void&lt;/div&gt;&lt;/div&gt;&lt;div&gt;+ getName(): string&lt;/div&gt;&lt;div&gt;&lt;br&gt;&lt;/div&gt;&lt;div&gt;+ playNextNum(uchar): void&lt;/div&gt;&lt;div&gt;+ newGame(): void&lt;/div&gt;&lt;div&gt;+ isWon(): bool&lt;/div&gt;" style="text;strokeColor=none;fillColor=none;align=left;verticalAlign=top;spacingLeft=4;spacingRight=4;overflow=hidden;rotatable=0;points=[[0,0.5],[1,0.5]];portConstraint=eastwest;whiteSpace=wrap;html=1;" parent="53Jxq9FcmLqkvc1geXPp-5" vertex="1">
          <mxGeometry y="88" width="190" height="142" as="geometry" />
        </mxCell>
        <mxCell id="53Jxq9FcmLqkvc1geXPp-10" value="NumberDeck" style="swimlane;fontStyle=1;align=center;verticalAlign=top;childLayout=stackLayout;horizontal=1;startSize=26;horizontalStack=0;resizeParent=1;resizeParentMax=0;resizeLast=0;collapsible=1;marginBottom=0;whiteSpace=wrap;html=1;" parent="1" vertex="1">
          <mxGeometry x="380" y="380" width="160" height="160" as="geometry" />
        </mxCell>
        <mxCell id="53Jxq9FcmLqkvc1geXPp-11" value="- deck: uchar[sizeN]&lt;div&gt;- count: uchar&lt;/div&gt;&lt;div&gt;- sizeN: const uchar&lt;/div&gt;" style="text;strokeColor=none;fillColor=none;align=left;verticalAlign=top;spacingLeft=4;spacingRight=4;overflow=hidden;rotatable=0;points=[[0,0.5],[1,0.5]];portConstraint=eastwest;whiteSpace=wrap;html=1;" parent="53Jxq9FcmLqkvc1geXPp-10" vertex="1">
          <mxGeometry y="26" width="160" height="54" as="geometry" />
        </mxCell>
        <mxCell id="53Jxq9FcmLqkvc1geXPp-12" value="" style="line;strokeWidth=1;fillColor=none;align=left;verticalAlign=middle;spacingTop=-1;spacingLeft=3;spacingRight=3;rotatable=0;labelPosition=right;points=[];portConstraint=eastwest;strokeColor=inherit;" parent="53Jxq9FcmLqkvc1geXPp-10" vertex="1">
          <mxGeometry y="80" width="160" height="8" as="geometry" />
        </mxCell>
        <mxCell id="53Jxq9FcmLqkvc1geXPp-13" value="+ NumberDeck()&lt;div&gt;+ reset(): void&lt;/div&gt;&lt;div&gt;+ shuffle(): void&lt;/div&gt;&lt;div&gt;+ getNext(): uchar&lt;/div&gt;" style="text;strokeColor=none;fillColor=none;align=left;verticalAlign=top;spacingLeft=4;spacingRight=4;overflow=hidden;rotatable=0;points=[[0,0.5],[1,0.5]];portConstraint=eastwest;whiteSpace=wrap;html=1;" parent="53Jxq9FcmLqkvc1geXPp-10" vertex="1">
          <mxGeometry y="88" width="160" height="72" as="geometry" />
        </mxCell>
        <mxCell id="53Jxq9FcmLqkvc1geXPp-14" value="GameMaster" style="swimlane;fontStyle=1;align=center;verticalAlign=top;childLayout=stackLayout;horizontal=1;startSize=26;horizontalStack=0;resizeParent=1;resizeParentMax=0;resizeLast=0;collapsible=1;marginBottom=0;whiteSpace=wrap;html=1;" parent="1" vertex="1">
          <mxGeometry x="660" y="180" width="320" height="260" as="geometry" />
        </mxCell>
        <mxCell id="53Jxq9FcmLqkvc1geXPp-15" value="- _instance: GameMaster*&lt;div&gt;- players: vector&amp;lt;Player&amp;gt;&lt;/div&gt;&lt;div&gt;- scores: vector&amp;lt;float&amp;gt;&lt;br&gt;&lt;/div&gt;&lt;div&gt;- n_players: uint&lt;/div&gt;&lt;div&gt;- deck: NumberDeck&lt;/div&gt;" style="text;strokeColor=none;fillColor=none;align=left;verticalAlign=top;spacingLeft=4;spacingRight=4;overflow=hidden;rotatable=0;points=[[0,0.5],[1,0.5]];portConstraint=eastwest;whiteSpace=wrap;html=1;" parent="53Jxq9FcmLqkvc1geXPp-14" vertex="1">
          <mxGeometry y="26" width="320" height="84" as="geometry" />
        </mxCell>
        <mxCell id="53Jxq9FcmLqkvc1geXPp-16" value="" style="line;strokeWidth=1;fillColor=none;align=left;verticalAlign=middle;spacingTop=-1;spacingLeft=3;spacingRight=3;rotatable=0;labelPosition=right;points=[];portConstraint=eastwest;strokeColor=inherit;" parent="53Jxq9FcmLqkvc1geXPp-14" vertex="1">
          <mxGeometry y="110" width="320" height="8" as="geometry" />
        </mxCell>
        <mxCell id="53Jxq9FcmLqkvc1geXPp-17" value="# GameMaster() // singleton&lt;div&gt;+ getInstance(): GameMaster*&lt;/div&gt;&lt;div&gt;&lt;br&gt;&lt;/div&gt;&lt;div&gt;+ loadJson&lt;span style=&quot;background-color: transparent; color: light-dark(rgb(0, 0, 0), rgb(255, 255, 255));&quot;&gt;(str): void&lt;/span&gt;&lt;/div&gt;&lt;div&gt;+ saveScores(str): void&lt;br&gt;&lt;/div&gt;&lt;div&gt;+ resetScores(): void&lt;/div&gt;&lt;div&gt;&lt;br&gt;&lt;/div&gt;&lt;div&gt;+ autoPlay(n_games: int): void&lt;/div&gt;&lt;div&gt;&lt;span style=&quot;white-space: pre;&quot;&gt;&#x9;&lt;/span&gt;- updateScores(winner_index:&amp;nbsp;&lt;span style=&quot;background-color: transparent; color: light-dark(rgb(0, 0, 0), rgb(255, 255, 255));&quot;&gt;vector&amp;lt;uchar&amp;gt;&lt;/span&gt;&lt;span style=&quot;background-color: transparent; color: light-dark(rgb(0, 0, 0), rgb(255, 255, 255));&quot;&gt;): void&lt;/span&gt;&lt;/div&gt;" style="text;strokeColor=none;fillColor=none;align=left;verticalAlign=top;spacingLeft=4;spacingRight=4;overflow=hidden;rotatable=0;points=[[0,0.5],[1,0.5]];portConstraint=eastwest;whiteSpace=wrap;html=1;" parent="53Jxq9FcmLqkvc1geXPp-14" vertex="1">
          <mxGeometry y="118" width="320" height="142" as="geometry" />
        </mxCell>
        <mxCell id="53Jxq9FcmLqkvc1geXPp-19" value="1" style="endArrow=open;html=1;endSize=12;startArrow=diamondThin;startSize=14;startFill=1;edgeStyle=orthogonalEdgeStyle;align=left;verticalAlign=bottom;rounded=0;" parent="1" source="53Jxq9FcmLqkvc1geXPp-14" target="53Jxq9FcmLqkvc1geXPp-14" edge="1">
          <mxGeometry x="-1" y="3" relative="1" as="geometry">
            <mxPoint x="650" y="400" as="sourcePoint" />
            <mxPoint x="710" y="160" as="targetPoint" />
          </mxGeometry>
        </mxCell>
        <mxCell id="53Jxq9FcmLqkvc1geXPp-21" value="1" style="endArrow=open;html=1;endSize=12;startArrow=diamondThin;startSize=14;startFill=0;edgeStyle=orthogonalEdgeStyle;align=left;verticalAlign=bottom;rounded=0;" parent="1" source="53Jxq9FcmLqkvc1geXPp-15" target="53Jxq9FcmLqkvc1geXPp-5" edge="1">
          <mxGeometry x="-1" y="3" relative="1" as="geometry">
            <mxPoint x="390" y="203" as="sourcePoint" />
            <mxPoint x="310" y="187.5" as="targetPoint" />
            <Array as="points">
              <mxPoint x="570" y="268" />
              <mxPoint x="570" y="188" />
            </Array>
          </mxGeometry>
        </mxCell>
        <mxCell id="53Jxq9FcmLqkvc1geXPp-22" value="1" style="endArrow=open;html=1;endSize=12;startArrow=diamondThin;startSize=14;startFill=0;edgeStyle=orthogonalEdgeStyle;align=left;verticalAlign=bottom;rounded=0;" parent="1" source="53Jxq9FcmLqkvc1geXPp-15" target="53Jxq9FcmLqkvc1geXPp-10" edge="1">
          <mxGeometry x="-1" y="3" relative="1" as="geometry">
            <mxPoint x="610" y="278" as="sourcePoint" />
            <mxPoint x="550" y="198" as="targetPoint" />
            <Array as="points">
              <mxPoint x="580" y="278" />
              <mxPoint x="580" y="450" />
            </Array>
          </mxGeometry>
        </mxCell>
        <mxCell id="53Jxq9FcmLqkvc1geXPp-24" value="loadFile(str){&lt;div&gt;&lt;span style=&quot;white-space: pre;&quot;&gt;&#x9;&lt;/span&gt;// input the numbers into num&lt;br&gt;&lt;/div&gt;&lt;div&gt;&lt;span style=&quot;white-space: pre;&quot;&gt;&#x9;&lt;/span&gt;// num_row = {0, 0, 0, 1, 1, 1, ...}&lt;br&gt;&lt;/div&gt;&lt;div&gt;&lt;br&gt;&lt;/div&gt;&lt;div&gt;&lt;span style=&quot;white-space: pre;&quot;&gt;&#x9;&lt;/span&gt;sortNum(num, num_row, left, right);&lt;br&gt;&lt;/div&gt;&lt;div&gt;&lt;span style=&quot;white-space: pre;&quot;&gt;&#x9;&lt;/span&gt;&lt;/div&gt;&lt;div&gt;}&lt;/div&gt;&lt;div&gt;&lt;br&gt;&lt;/div&gt;&lt;div&gt;getRow(num){&lt;/div&gt;&lt;div&gt;&lt;span style=&quot;white-space: pre;&quot;&gt;&#x9;&lt;/span&gt;// search number using binary search, return row num else -1 if not exist&lt;/div&gt;&lt;div&gt;}&lt;/div&gt;&lt;div&gt;&lt;br&gt;&lt;/div&gt;&lt;div&gt;sortNum(l, r){&lt;/div&gt;&lt;div&gt;&lt;span style=&quot;white-space: pre;&quot;&gt;&#x9;&lt;/span&gt;// quickSort&lt;br&gt;&lt;/div&gt;&lt;div&gt;}&lt;/div&gt;" style="shape=note;size=20;whiteSpace=wrap;html=1;align=left;" parent="1" vertex="1">
          <mxGeometry x="-250" y="350" width="330" height="250" as="geometry" />
        </mxCell>
        <mxCell id="53Jxq9FcmLqkvc1geXPp-25" value="" style="endArrow=none;dashed=1;html=1;rounded=0;" parent="1" source="53Jxq9FcmLqkvc1geXPp-24" target="53Jxq9FcmLqkvc1geXPp-1" edge="1">
          <mxGeometry width="50" height="50" relative="1" as="geometry">
            <mxPoint x="300" y="300" as="sourcePoint" />
            <mxPoint x="350" y="250" as="targetPoint" />
          </mxGeometry>
        </mxCell>
        <mxCell id="53Jxq9FcmLqkvc1geXPp-26" value="&lt;div&gt;&lt;span style=&quot;background-color: transparent; color: light-dark(rgb(0, 0, 0), rgb(255, 255, 255));&quot;&gt;setCredentials(name, add){&lt;/span&gt;&lt;br&gt;&lt;/div&gt;&lt;div&gt;&lt;span style=&quot;white-space: pre;&quot;&gt;&#x9;&lt;/span&gt;name = name;&lt;br&gt;&lt;/div&gt;&lt;div&gt;&lt;span style=&quot;white-space: pre;&quot;&gt;&#x9;&lt;/span&gt;board.loadFile(add);&lt;br&gt;&lt;/div&gt;&lt;div&gt;}&lt;br&gt;&lt;/div&gt;" style="shape=note;size=20;whiteSpace=wrap;html=1;align=left;" parent="1" vertex="1">
          <mxGeometry x="340" y="20" width="250" height="70" as="geometry" />
        </mxCell>
        <mxCell id="53Jxq9FcmLqkvc1geXPp-29" value="" style="endArrow=none;dashed=1;html=1;rounded=0;" parent="1" source="53Jxq9FcmLqkvc1geXPp-5" target="53Jxq9FcmLqkvc1geXPp-26" edge="1">
          <mxGeometry width="50" height="50" relative="1" as="geometry">
            <mxPoint x="184" y="370" as="sourcePoint" />
            <mxPoint x="191" y="340" as="targetPoint" />
          </mxGeometry>
        </mxCell>
        <mxCell id="53Jxq9FcmLqkvc1geXPp-30" value="loadJson(str){&lt;div&gt;&lt;span style=&quot;white-space: pre;&quot;&gt;&#x9;&lt;/span&gt;// input n_players&lt;br&gt;&lt;/div&gt;&lt;div&gt;&lt;span style=&quot;white-space: pre;&quot;&gt;&#x9;&lt;/span&gt;// for each player, input name and board address&lt;br&gt;&lt;/div&gt;&lt;div&gt;&lt;span style=&quot;white-space: pre;&quot;&gt;&#x9;&lt;/span&gt;Player player;&lt;br&gt;&lt;/div&gt;&lt;div&gt;&lt;span style=&quot;white-space: pre;&quot;&gt;&#x9;&lt;/span&gt;player.getCredentials(name, addr);&lt;br&gt;&lt;/div&gt;&lt;div&gt;}&lt;/div&gt;&lt;div&gt;&lt;br&gt;&lt;/div&gt;&lt;div&gt;saveScores(str){&lt;/div&gt;&lt;div&gt;&lt;span style=&quot;white-space: pre;&quot;&gt;&#x9;&lt;/span&gt;foreach player:&lt;/div&gt;&lt;div&gt;&lt;span style=&quot;white-space: pre;&quot;&gt;&#x9;&lt;/span&gt;// player name // score&lt;/div&gt;&lt;div&gt;}&lt;/div&gt;&lt;div&gt;&lt;br&gt;&lt;/div&gt;&lt;div&gt;resetScores(){&lt;/div&gt;&lt;div&gt;&lt;span style=&quot;white-space: pre;&quot;&gt;&#x9;&lt;/span&gt;player_scores[i] = 0;&lt;br&gt;&lt;/div&gt;&lt;div&gt;}&lt;/div&gt;&lt;div&gt;&lt;br&gt;&lt;/div&gt;&lt;div&gt;autoPlay(n_games){&lt;/div&gt;&lt;div&gt;&lt;span style=&quot;white-space: pre;&quot;&gt;&#x9;&lt;/span&gt;for i in range(0, n_games):&lt;br&gt;&lt;/div&gt;&lt;div&gt;&lt;span style=&quot;white-space: pre;&quot;&gt;&#x9;&lt;/span&gt;&lt;span style=&quot;white-space: pre;&quot;&gt;&#x9;&lt;/span&gt;// play until someone wins&lt;br&gt;&lt;/div&gt;&lt;div&gt;&lt;span style=&quot;white-space: pre;&quot;&gt;&#x9;&lt;/span&gt;&lt;span style=&quot;white-space: pre;&quot;&gt;&#x9;&lt;/span&gt;// update score&lt;br&gt;&lt;/div&gt;&lt;div&gt;}&lt;/div&gt;" style="shape=note;size=20;whiteSpace=wrap;html=1;align=left;" parent="1" vertex="1">
          <mxGeometry x="1060" y="150" width="250" height="340" as="geometry" />
        </mxCell>
        <mxCell id="53Jxq9FcmLqkvc1geXPp-31" value="" style="endArrow=none;dashed=1;html=1;rounded=0;" parent="1" source="53Jxq9FcmLqkvc1geXPp-14" target="53Jxq9FcmLqkvc1geXPp-30" edge="1">
          <mxGeometry width="50" height="50" relative="1" as="geometry">
            <mxPoint x="475" y="120" as="sourcePoint" />
            <mxPoint x="475" y="100" as="targetPoint" />
          </mxGeometry>
        </mxCell>
        <mxCell id="2rydjx3P2EX6F-93kwzN-2" value="reset(){&lt;div&gt;&lt;span style=&quot;white-space: pre;&quot;&gt;&#x9;&lt;/span&gt;for index i in range(0, deckSize)&lt;br&gt;&lt;/div&gt;&lt;div&gt;&lt;span style=&quot;white-space: pre;&quot;&gt;&#x9;&lt;/span&gt;&lt;span style=&quot;white-space: pre;&quot;&gt;&#x9;&lt;/span&gt;deck[i] = i;&lt;br&gt;&lt;/div&gt;&lt;div&gt;}&lt;/div&gt;&lt;div&gt;&lt;br&gt;&lt;/div&gt;&lt;div&gt;shuffle(){&lt;/div&gt;&lt;div&gt;&lt;span style=&quot;white-space: pre;&quot;&gt;&#x9;&lt;/span&gt;// well shuffle randomly by swapping&lt;br&gt;&lt;/div&gt;&lt;div&gt;}&lt;/div&gt;&lt;div&gt;&lt;br&gt;&lt;/div&gt;&lt;div&gt;getNext(){&lt;/div&gt;&lt;div&gt;&lt;span style=&quot;white-space: pre;&quot;&gt;&#x9;&lt;/span&gt;return deck[count++]&lt;br&gt;&lt;/div&gt;&lt;div&gt;}&lt;/div&gt;" style="shape=note;size=20;whiteSpace=wrap;html=1;align=left;" parent="1" vertex="1">
          <mxGeometry x="200" y="570" width="250" height="210" as="geometry" />
        </mxCell>
        <mxCell id="2rydjx3P2EX6F-93kwzN-3" value="" style="endArrow=none;dashed=1;html=1;rounded=0;" parent="1" source="2rydjx3P2EX6F-93kwzN-2" target="53Jxq9FcmLqkvc1geXPp-10" edge="1">
          <mxGeometry width="50" height="50" relative="1" as="geometry">
            <mxPoint x="80" y="260" as="sourcePoint" />
            <mxPoint x="120" y="258" as="targetPoint" />
          </mxGeometry>
        </mxCell>
        <mxCell id="2rydjx3P2EX6F-93kwzN-4" style="edgeStyle=orthogonalEdgeStyle;rounded=0;orthogonalLoop=1;jettySize=auto;html=1;" parent="1" source="2rydjx3P2EX6F-93kwzN-2" target="2rydjx3P2EX6F-93kwzN-2" edge="1">
          <mxGeometry relative="1" as="geometry" />
        </mxCell>
        <mxCell id="9cZB8jZeDIRbqrZxd8ii-1" value="BoardPlayer" style="swimlane;fontStyle=1;align=center;verticalAlign=top;childLayout=stackLayout;horizontal=1;startSize=26;horizontalStack=0;resizeParent=1;resizeParentMax=0;resizeLast=0;collapsible=1;marginBottom=0;whiteSpace=wrap;html=1;" vertex="1" parent="1">
          <mxGeometry x="100" y="120" width="190" height="180" as="geometry" />
        </mxCell>
        <mxCell id="9cZB8jZeDIRbqrZxd8ii-2" value="- winState: bool&lt;div&gt;- prog: uchar[sizeY]&lt;/div&gt;&lt;div&gt;- board_address: string&lt;/div&gt;" style="text;strokeColor=none;fillColor=none;align=left;verticalAlign=top;spacingLeft=4;spacingRight=4;overflow=hidden;rotatable=0;points=[[0,0.5],[1,0.5]];portConstraint=eastwest;whiteSpace=wrap;html=1;" vertex="1" parent="9cZB8jZeDIRbqrZxd8ii-1">
          <mxGeometry y="26" width="190" height="64" as="geometry" />
        </mxCell>
        <mxCell id="9cZB8jZeDIRbqrZxd8ii-3" value="" style="line;strokeWidth=1;fillColor=none;align=left;verticalAlign=middle;spacingTop=-1;spacingLeft=3;spacingRight=3;rotatable=0;labelPosition=right;points=[];portConstraint=eastwest;strokeColor=inherit;" vertex="1" parent="9cZB8jZeDIRbqrZxd8ii-1">
          <mxGeometry y="90" width="190" height="8" as="geometry" />
        </mxCell>
        <mxCell id="9cZB8jZeDIRbqrZxd8ii-4" value="&lt;div&gt;+ BoardPlayer(board_address)&lt;/div&gt;&lt;div&gt;&lt;br&gt;&lt;/div&gt;+ resetProg(): void&lt;div&gt;+ updateNextNum(uchar): void&lt;/div&gt;&lt;div&gt;+ isWon(): bool&lt;/div&gt;" style="text;strokeColor=none;fillColor=none;align=left;verticalAlign=top;spacingLeft=4;spacingRight=4;overflow=hidden;rotatable=0;points=[[0,0.5],[1,0.5]];portConstraint=eastwest;whiteSpace=wrap;html=1;" vertex="1" parent="9cZB8jZeDIRbqrZxd8ii-1">
          <mxGeometry y="98" width="190" height="82" as="geometry" />
        </mxCell>
        <mxCell id="9cZB8jZeDIRbqrZxd8ii-5" value="Use" style="endArrow=open;endSize=12;dashed=1;html=1;rounded=0;" edge="1" parent="1" source="53Jxq9FcmLqkvc1geXPp-8" target="9cZB8jZeDIRbqrZxd8ii-4">
          <mxGeometry width="160" relative="1" as="geometry">
            <mxPoint x="70" y="310" as="sourcePoint" />
            <mxPoint x="230" y="310" as="targetPoint" />
          </mxGeometry>
        </mxCell>
        <mxCell id="9cZB8jZeDIRbqrZxd8ii-7" value="Extends" style="endArrow=block;endSize=16;endFill=0;html=1;rounded=0;" edge="1" parent="1" source="9cZB8jZeDIRbqrZxd8ii-1" target="53Jxq9FcmLqkvc1geXPp-1">
          <mxGeometry width="160" relative="1" as="geometry">
            <mxPoint x="100" y="310" as="sourcePoint" />
            <mxPoint x="260" y="310" as="targetPoint" />
          </mxGeometry>
        </mxCell>
        <mxCell id="9cZB8jZeDIRbqrZxd8ii-14" value="1" style="endArrow=open;html=1;endSize=12;startArrow=diamondThin;startSize=14;startFill=0;edgeStyle=orthogonalEdgeStyle;align=left;verticalAlign=bottom;rounded=0;" edge="1" parent="1" source="53Jxq9FcmLqkvc1geXPp-5" target="9cZB8jZeDIRbqrZxd8ii-1">
          <mxGeometry x="-1" y="3" relative="1" as="geometry">
            <mxPoint x="210" y="10" as="sourcePoint" />
            <mxPoint x="370" y="10" as="targetPoint" />
          </mxGeometry>
        </mxCell>
        <mxCell id="9cZB8jZeDIRbqrZxd8ii-19" value="&lt;br&gt;&lt;div&gt;&lt;span style=&quot;background-color: transparent; color: light-dark(rgb(0, 0, 0), rgb(255, 255, 255));&quot;&gt;loadBoard(){&lt;/span&gt;&lt;/div&gt;&lt;div&gt;&lt;span style=&quot;background-color: transparent; color: light-dark(rgb(0, 0, 0), rgb(255, 255, 255));&quot;&gt;&lt;span style=&quot;white-space: pre;&quot;&gt;&#x9;&lt;/span&gt;board.loadFile(board_address);&lt;/span&gt;&lt;/div&gt;&lt;div&gt;&lt;span style=&quot;background-color: transparent; color: light-dark(rgb(0, 0, 0), rgb(255, 255, 255));&quot;&gt;}&lt;/span&gt;&lt;/div&gt;&lt;div&gt;resetProg(){&lt;/div&gt;&lt;div&gt;&lt;span style=&quot;white-space: pre;&quot;&gt;&#x9;&lt;/span&gt;prog[i] = 0;&lt;br&gt;&lt;/div&gt;&lt;div&gt;}&lt;/div&gt;&lt;div&gt;updateNextNum(num){&lt;/div&gt;&lt;div&gt;&lt;span style=&quot;white-space: pre;&quot;&gt;&#x9;&lt;/span&gt;prog[board.getRow(num)]++;&lt;br&gt;&lt;/div&gt;&lt;div&gt;&lt;span style=&quot;white-space: pre;&quot;&gt;&#x9;&lt;/span&gt;//update winState flag&lt;br&gt;&lt;/div&gt;&lt;div&gt;}&lt;/div&gt;&lt;div&gt;isWon{&lt;/div&gt;&lt;div&gt;&lt;span style=&quot;white-space: pre;&quot;&gt;&#x9;&lt;/span&gt;return winState;&lt;br&gt;&lt;/div&gt;&lt;div&gt;}&lt;/div&gt;" style="shape=note;size=20;whiteSpace=wrap;html=1;align=left;" vertex="1" parent="1">
          <mxGeometry x="90" y="-150" width="220" height="220" as="geometry" />
        </mxCell>
        <mxCell id="9cZB8jZeDIRbqrZxd8ii-20" value="" style="endArrow=none;dashed=1;html=1;rounded=0;" edge="1" parent="1" source="9cZB8jZeDIRbqrZxd8ii-1" target="9cZB8jZeDIRbqrZxd8ii-19">
          <mxGeometry width="50" height="50" relative="1" as="geometry">
            <mxPoint x="475" y="150" as="sourcePoint" />
            <mxPoint x="475" y="100" as="targetPoint" />
          </mxGeometry>
        </mxCell>
      </root>
    </mxGraphModel>
  </diagram>
</mxfile>
